<?xml version="1.0" encoding="utf-8"?>
<!-- Generator: Adobe Illustrator 23.0.1, SVG Export Plug-In . SVG Version: 6.00 Build 0)  -->
<svg version="1.0" id="레이어_1" xmlns="http://www.w3.org/2000/svg" xmlns:xlink="http://www.w3.org/1999/xlink" x="0px"
	 y="0px" viewBox="0 0 182 162" style="enable-background:new 0 0 182 162;" xml:space="preserve">
<style type="text/css">
	.st0{fill:none;stroke:#EFEBE8;stroke-width:9;stroke-miterlimit:10;}
	.st1{fill:#EFEBE8;}
</style>
<circle class="st0" cx="90.193" cy="59.047" r="50.723"/>
<circle class="st1" cx="99.576" cy="36.963" r="6.414"/>
<line class="st0" x1="61.628" y1="71.596" x2="119.095" y2="51.334"/>
<path class="st0" d="M78.433,52.519c-1.698-4.815-6.326-7.572-10.338-6.157l-1.362,0.48c-4.012,1.415-5.888,6.465-4.19,11.28"/>
<path class="st0" d="M88.819,61.911l5.096,14.454c2.356,6.682,9.682,10.189,16.364,7.833l2.268-0.8
	c6.682-2.356,10.189-9.682,7.833-16.364l-5.115-14.507"/>
<path class="st1" d="M10.611,122.201c4.042,0,7.329,3.214,7.442,7.222h2.229v-7.336h5.138v25.825h-5.138v-13.461h-2.229
	c-0.038,4.084-3.362,7.374-7.442,7.374H9.25c-4.118,0-7.443-3.328-7.443-7.449v-4.765c0-4.121,3.325-7.41,7.443-7.41H10.611z
	 M9.779,152.752h17.984v-30.665h5.214v35.77H4.338V145.53h5.44V152.752z M13.406,129.952c0-1.891-1.322-3.252-3.211-3.252H9.628
	c-1.89,0-3.212,1.361-3.212,3.252v4.121c0,1.891,1.322,3.214,3.212,3.214h0.566c1.889,0,3.211-1.323,3.211-3.214V129.952z"/>
<path class="st1" d="M51.722,127.116h3.06v-4.84h4.912v18.755H39.028v-18.755h4.911v4.84H47v-4.878h4.723V127.116z M46.886,144.396
	h15.376c3.703,0,6.726,3.025,6.726,6.73c0,3.706-3.022,6.73-6.726,6.73H46.886c-3.703,0-6.726-3.024-6.726-6.73
	C40.161,147.421,43.183,144.396,46.886,144.396z M43.939,136.305H47v-4.575h-3.061V136.305z M46.961,153.093h15.226
	c1.021,0,1.7-0.983,1.7-1.967c0-0.982-0.68-1.966-1.7-1.966H46.961c-1.021,0-1.7,0.983-1.7,1.966
	C45.261,152.109,45.941,153.093,46.961,153.093z M54.782,136.305v-4.575h-3.06v4.575H54.782z M62.943,141.598v-19.511h5.289v6.314
	h3.854v5.143h-3.854v8.054H62.943z"/>
<path class="st1" d="M83.313,127.381h-8.991v-5.104h14.583v5.104l-0.643,4.349h5.251v-9.643h5.176v35.77h-5.176v-10.322h-7.48
	l-1.398,10.096h-5.742L83.313,127.381z M86.79,142.392h6.724v-5.521h-5.969L86.79,142.392z M101.297,157.856v-35.77h5.176v35.77
	H101.297z"/>
<path class="st1" d="M123.971,122.276l7.405,18.074h-5.97l-4.496-10.814l-4.495,10.814h-5.97l7.405-18.074H123.971z
	 M144.637,134.338h-3.854v23.519h-27.618v-11.721h5.327v6.579h16.851v-30.628h5.44v6.92h3.854V134.338z"/>
<path class="st1" d="M160.473,127.343h-13.563v-5.066h19.495v5.066l-4.345,30.287h-5.818L160.473,127.343z M178.079,157.856h-5.818
	v-35.77h5.818V157.856z"/>
</svg>
