<?xml version="1.0" encoding="utf-8"?>
<!-- Generator: Adobe Illustrator 23.0.1, SVG Export Plug-In . SVG Version: 6.00 Build 0)  -->
<svg version="1.1" id="레이어_1" xmlns="http://www.w3.org/2000/svg" xmlns:xlink="http://www.w3.org/1999/xlink" x="0px"
	 y="0px" viewBox="0 0 125 18" style="enable-background:new 0 0 125 18;" xml:space="preserve">
<style type="text/css">
	.st0{fill:#FFFFFF;}
</style>
<g>
	<path class="st0" d="M9.511,8.411h6.428v2.161H0.454V8.411h6.428V6.827h2.629V8.411z M9.583,1.785h5.689v2.07l-2.827,0.811
		l2.827,0.99v2.25L8.827,5.71L1.12,7.907V5.512l5.726-1.477H1.12v-2.25h5.672V0.165h2.791V1.785z M11.978,11.598
		c1.765,0,3.205,1.26,3.205,3.097c0,1.854-1.44,3.115-3.205,3.115H4.415c-1.782,0-3.205-1.261-3.205-3.115
		c0-1.836,1.423-3.097,3.205-3.097H11.978z M4.415,13.812c-0.54,0-0.936,0.378-0.936,0.882c0,0.504,0.396,0.9,0.936,0.9h7.562
		c0.54,0,0.937-0.396,0.937-0.9c0-0.504-0.396-0.882-0.937-0.882H4.415z"/>
	<path class="st0" d="M38.349,9.311h-2.593V7.853h-2.773v1.062h-9.038V0.867h9.038v1.603h2.773V0.777h2.593V9.311z M33.091,10.95
		h5.258v2.071l-3.764,1.314l3.835,1.134v2.341l-6.878-2.413L24.7,17.81v-2.395l6.626-2.395H24.7V10.95h5.617V9.744h2.773V10.95z
		 M26.663,6.665h3.601V3.118h-3.601V6.665z M32.982,5.836h2.773V4.486h-2.773V5.836z"/>
	<path class="st0" d="M50.172,2.307h2.953v-1.53h2.503v9.687h-2.503V8.537h-2.953v1.242h-8.948V0.867h8.948V2.307z M45.148,11.4
		h7.328c1.765,0,3.205,1.44,3.205,3.205s-1.44,3.205-3.205,3.205h-7.328c-1.764,0-3.204-1.44-3.204-3.205S43.385,11.4,45.148,11.4z
		 M47.651,3.333H43.78v3.997h3.871V3.333z M45.185,15.541h7.257c0.485,0,0.81-0.468,0.81-0.936c0-0.468-0.324-0.937-0.81-0.937
		h-7.257c-0.486,0-0.81,0.468-0.81,0.937C44.375,15.073,44.698,15.541,45.185,15.541z M50.172,6.269h2.953V4.576h-2.953V6.269z"/>
	<path class="st0" d="M69.647,0.777c2.341,0,4.195,2.035,4.195,4.375v8.283c0,2.359-1.891,4.375-4.268,4.375h-0.882
		c-2.449,0-4.43-1.945-4.43-4.375V5.152c0-2.431,1.98-4.375,4.43-4.375H69.647z M68.693,3.333c-1.026,0-1.873,0.81-1.873,1.818
		v8.283c0,1.008,0.847,1.818,1.873,1.818h0.81c1.009,0,1.783-0.846,1.783-1.818V5.152c0-0.954-0.774-1.818-1.747-1.818H68.693z
		 M78.668,17.81h-2.772V0.777h2.772V17.81z"/>
	<path class="st0" d="M90.402,17.81V9.185h-1.566v4.25c0,2.593-1.729,4.375-3.871,4.375s-3.871-1.783-3.871-4.375V5.152
		c0-2.593,1.729-4.375,3.871-4.375s3.871,1.782,3.871,4.375v1.603h1.566V0.777h2.358V17.81H90.402z M86.314,5.152
		c0-0.99-0.468-1.764-1.35-1.764c-0.883,0-1.351,0.774-1.351,1.764v8.283c0,0.99,0.468,1.765,1.351,1.765
		c0.882,0,1.35-0.774,1.35-1.765V5.152z M93.932,17.81V0.777h2.358V17.81H93.932z"/>
	<path class="st0" d="M101.758,15.397v-4.969c-1.692-0.45-2.935-1.981-2.935-3.817V4.774c0-2.179,1.765-3.925,3.943-3.925h6.698
		c2.16,0,3.925,1.747,3.925,3.925V6.61c0,1.819-1.225,3.331-2.863,3.799v4.987h3.331v2.413H98.373v-2.413H101.758z M109.122,8.123
		c1.062,0,1.765-0.882,1.765-1.945V5.224c0-1.081-0.702-1.945-1.765-1.945h-6.014c-1.08,0-1.765,0.864-1.765,1.945v0.954
		c0,1.062,0.685,1.945,1.765,1.945H109.122z M104.387,15.397h3.512v-4.843h-3.512V15.397z"/>
	<path class="st0" d="M115.437,5.314c0-1.908,0.505-4.339,2.936-4.339h3.15c3.043,0,3.655,3.889,2.755,5.528l-2.521,4.627v2.017
		h-2.593V10.86l2.395-4.177c0.522-0.918,0.468-3.151-0.792-3.151h-1.459c-1.044,0-1.278,0.702-1.278,1.782H115.437z M121.811,17.288
		h-2.646v-2.629h2.646V17.288z"/>
</g>
</svg>
