<?xml version="1.0" encoding="utf-8"?>
<!-- Generator: Adobe Illustrator 23.0.1, SVG Export Plug-In . SVG Version: 6.00 Build 0)  -->
<svg version="1.1" id="레이어_1" xmlns="http://www.w3.org/2000/svg" xmlns:xlink="http://www.w3.org/1999/xlink" x="0px"
	 y="0px" viewBox="0 0 223.937 51.307" style="enable-background:new 0 0 223.937 51.307;" xml:space="preserve">
<style type="text/css">
	.st0{fill:#930405;}
	.st1{fill:#F93738;}
	.st2{fill:#FFFFFF;}
</style>
<g>
	<path class="st0" d="M220.26,45.033H3.74C1.674,45.033,0,42.771,0,39.98v6c0,2.791,1.674,5.053,3.74,5.053h216.52
		c2.065,0,3.74-2.262,3.74-5.053v-6C224,42.771,222.326,45.033,220.26,45.033z"/>
	<path class="st1" d="M220.26,0.033H3.74C1.674,0.033,0,1.682,0,3.715V42.35c0,2.034,1.674,3.682,3.74,3.682h216.52
		c2.065,0,3.74-1.649,3.74-3.682V3.715C224,1.682,222.326,0.033,220.26,0.033z"/>
	<path d="M220.253,0.783c1.653,0,2.997,1.344,2.997,2.997v43.506c0,1.653-1.344,2.997-2.997,2.997H3.747
		c-1.653,0-2.997-1.344-2.997-2.997V3.78c0-1.653,1.344-2.997,2.997-2.997H220.253 M220.253,0.033H3.747C1.678,0.033,0,1.711,0,3.78
		v43.506c0,2.069,1.678,3.747,3.747,3.747h216.506c2.069,0,3.747-1.678,3.747-3.747V3.78C224,1.711,222.322,0.033,220.253,0.033
		L220.253,0.033z"/>
</g>
<g>
	<path class="st2" d="M88.742,23.807c0,1.566-1.296,2.863-3.079,3.295v2.323h5.978V14.822h2.521v17.033H79.308v-2.431h3.763v-2.323
		c-1.801-0.432-3.079-1.729-3.079-3.295v-1.638c0-1.909,1.944-3.439,4.375-3.439c2.431,0,4.375,1.53,4.375,3.439V23.807z
		 M83.143,15.596V14.21h2.485v1.386h3.583v2.251h-9.633v-2.251H83.143z M82.477,23.447c0,0.9,0.864,1.603,1.891,1.603
		c1.026,0,1.89-0.702,1.89-1.603v-0.918c0-0.9-0.864-1.603-1.89-1.603c-1.026,0-1.891,0.702-1.891,1.603V23.447z"/>
	<path class="st2" d="M101.287,25.482h-4.699v-2.341h12.333V20.44h-2.322v-2.431h2.322v-3.187h2.521v17.033H97.398V27.75h2.521v1.71
		h9.002v-3.979h-5.222v2.467h-2.412V25.482z M101.413,14.822c2.16,0,4.087,1.458,4.087,3.241v1.207c0,1.782-1.944,3.241-4.123,3.241
		c-2.196,0-4.015-1.458-4.015-3.241v-1.134c0-2.071,2.179-3.313,3.925-3.313H101.413z M103.141,18.55
		c0-0.828-0.756-1.513-1.692-1.513s-1.71,0.685-1.71,1.513v0.378c0,0.846,0.774,1.513,1.71,1.513s1.692-0.667,1.692-1.513V18.55z"/>
	<path class="st2" d="M120.061,17.325h-6.194v-2.413h9.021v2.413l-2.07,14.44h-2.772L120.061,17.325z M128.235,21.142h1.837v2.449
		h-1.837v8.265h-2.7V14.822h2.7V21.142z"/>
	<path class="st2" d="M137.035,14.876c1.962,0,3.547,1.566,3.547,3.529v1.368c0,1.963-1.585,3.547-3.547,3.547h-1.909
		c-1.962,0-3.547-1.584-3.547-3.547v-1.368c0-1.963,1.585-3.529,3.547-3.529H137.035z M134.874,25.842h8.606V14.822h2.521v17.033
		h-13.648v-7.292h2.521V25.842z M138.097,18.838c0-0.9-0.631-1.548-1.531-1.548h-0.972c-0.9,0-1.53,0.648-1.53,1.548v0.522
		c0,0.9,0.63,1.531,1.53,1.531h0.972c0.9,0,1.531-0.63,1.531-1.531V18.838z M134.874,29.479h8.606v-1.404h-8.606V29.479z"/>
</g>
</svg>
