<?xml version="1.0" encoding="utf-8"?>
<!-- Generator: Adobe Illustrator 23.0.1, SVG Export Plug-In . SVG Version: 6.00 Build 0)  -->
<svg version="1.0" id="레이어_1" xmlns="http://www.w3.org/2000/svg" xmlns:xlink="http://www.w3.org/1999/xlink" x="0px"
	 y="0px" viewBox="0 0 234 51" style="enable-background:new 0 0 234 51;" xml:space="preserve">
<style type="text/css">
	.st0{fill:#EFEBE8;}
</style>
<g>
	<path class="st0" d="M22.7,12.048c3.197,0,5.731,2.78,5.731,5.978V29.34c0,3.223-2.583,5.978-5.83,5.978h-1.205
		c-3.345,0-6.051-2.657-6.051-5.978V18.026c0-3.32,2.706-5.978,6.051-5.978H22.7z M21.396,15.542c-1.401,0-2.558,1.106-2.558,2.484
		V29.34c0,1.378,1.156,2.484,2.558,2.484h1.107c1.377,0,2.435-1.156,2.435-2.484V18.026c0-1.304-1.058-2.484-2.386-2.484H21.396z
		 M35.023,35.317h-3.788V12.048h3.788V35.317z"/>
	<path class="st0" d="M38.956,23.487v-7.035h7.453v-1.328h-7.453v-2.952h10.602v7.231h-7.552v1.132h7.699v2.952H38.956z
		 M59.421,28.823h-2.14c0.688,0.664,1.106,1.501,1.106,2.386c0,2.411-1.943,4.108-4.378,4.108h-8.437
		c-2.411,0-4.379-1.697-4.379-4.108c0-0.885,0.418-1.722,1.107-2.386h-2.189v-2.852h7.724v-1.796h3.886v1.796h7.699V28.823z
		 M45.598,30.177c-0.591,0-1.058,0.442-1.058,1.032c0,0.591,0.467,1.033,1.058,1.033h8.388c0.59,0,1.058-0.442,1.058-1.033
		c0-0.59-0.468-1.032-1.058-1.032H45.598z M58.634,24.101h-3.542v-4.846h-3.837v-3.074h3.837v-4.133h3.542V24.101z"/>
	<path class="st0" d="M67.954,15.493H61.78v-3.321h9.814v3.321l-0.64,4.648h2.902v-8.093h3.37v23.269h-3.37V23.487h-3.345
		l-1.574,11.708h-3.739L67.954,15.493z M79.343,35.317V12.048h3.37v23.269H79.343z"/>
	<path class="st0" d="M99.164,12.123c2.632,0,4.771,2.091,4.846,4.698h1.451v-4.772h3.346v16.799h-3.346v-8.755h-1.451
		c-0.024,2.656-2.189,4.796-4.846,4.796h-0.886c-2.681,0-4.846-2.164-4.846-4.846v-3.099c0-2.682,2.165-4.821,4.846-4.821H99.164z
		 M98.623,31.996h11.708V12.048h3.395v23.269H95.081v-8.019h3.542V31.996z M100.984,17.165c0-1.229-0.861-2.115-2.091-2.115h-0.369
		c-1.229,0-2.091,0.886-2.091,2.115v2.682c0,1.229,0.861,2.091,2.091,2.091h0.369c1.229,0,2.091-0.861,2.091-2.091V17.165z"/>
	<path class="st0" d="M125.923,15.32h1.992v-3.148h3.198v12.2h-13.455v-12.2h3.197v3.148h1.993v-3.173h3.074V15.32z M122.774,26.561
		h10.011c2.411,0,4.379,1.968,4.379,4.378c0,2.411-1.968,4.379-4.379,4.379h-10.011c-2.41,0-4.378-1.968-4.378-4.379
		C118.396,28.528,120.364,26.561,122.774,26.561z M120.855,21.297h1.993v-2.977h-1.993V21.297z M122.823,32.218h9.913
		c0.664,0,1.106-0.64,1.106-1.279s-0.442-1.278-1.106-1.278h-9.913c-0.664,0-1.106,0.639-1.106,1.278S122.159,32.218,122.823,32.218
		z M127.915,21.297v-2.977h-1.992v2.977H127.915z M133.229,24.741V12.048h3.443v4.108h2.509v3.345h-2.509v5.239H133.229z"/>
	<path class="st0" d="M149.436,13.549h4.747v3.074H141.27v-3.074h4.723v-2.337h3.443V13.549z M148.6,18.125
		c2.73,0,4.919,2.115,4.919,4.723v7.625c0,2.607-2.188,4.723-4.919,4.723h-1.82c-2.73,0-4.919-2.115-4.919-4.723v-7.625
		c0-2.607,2.188-4.723,4.919-4.723H148.6z M147.812,31.898c1.255,0,2.287-0.812,2.287-2.141V23.56c0-1.328-1.032-2.164-2.287-2.164
		h-0.246c-1.255,0-2.287,0.836-2.287,2.164v6.198c0,1.328,1.032,2.141,2.287,2.141H147.812z M160.283,21.371h2.509v3.346h-2.509
		v10.601h-3.468V12.048h3.468V21.371z"/>
	<path class="st0" d="M169.209,24.888l-2.066,10.306h-3.468l4.796-23.047h3.321l-1.354,6.642l0.222-0.443l4.452,16.849h-3.468
		L169.209,24.888z M176.711,20.042v-7.994h3.271v23.269h-3.271V23.29h-2.976v-3.247H176.711z M185.025,35.317h-3.321V12.048h3.321
		V35.317z"/>
	<path class="st0" d="M192.5,32.021v-6.789c-2.312-0.615-4.01-2.706-4.01-5.215v-2.509c0-2.977,2.41-5.362,5.387-5.362h9.15
		c2.951,0,5.362,2.386,5.362,5.362v2.509c0,2.484-1.673,4.551-3.911,5.19v6.813h4.551v3.296h-21.154v-3.296H192.5z M202.56,22.084
		c1.451,0,2.411-1.205,2.411-2.656v-1.304c0-1.477-0.96-2.657-2.411-2.657h-8.215c-1.477,0-2.411,1.181-2.411,2.657v1.304
		c0,1.451,0.935,2.656,2.411,2.656H202.56z M196.091,32.021h4.797v-6.617h-4.797V32.021z"/>
	<path class="st0" d="M216.725,29.315h-3.615V12.319h3.615V29.315z M216.725,34.604h-3.615v-3.591h3.615V34.604z"/>
</g>
</svg>
