<?xml version="1.0" encoding="utf-8"?>
<!-- Generator: Adobe Illustrator 23.0.1, SVG Export Plug-In . SVG Version: 6.00 Build 0)  -->
<svg version="1.1" id="레이어_1" xmlns="http://www.w3.org/2000/svg" xmlns:xlink="http://www.w3.org/1999/xlink" x="0px"
	 y="0px" viewBox="0 0 223.937 51.307" style="enable-background:new 0 0 223.937 51.307;" xml:space="preserve">
<style type="text/css">
	.st0{fill:#930405;}
	.st1{fill:#F93738;}
	.st2{fill:#FFFFFF;}
</style>
<g>
	<path class="st0" d="M220.26,45.033H3.74C1.674,45.033,0,42.771,0,39.98v6c0,2.791,1.674,5.053,3.74,5.053h216.52
		c2.065,0,3.74-2.262,3.74-5.053v-6C224,42.771,222.326,45.033,220.26,45.033z"/>
	<path class="st1" d="M220.26,0.033H3.74C1.674,0.033,0,1.682,0,3.715V42.35c0,2.034,1.674,3.682,3.74,3.682h216.52
		c2.065,0,3.74-1.649,3.74-3.682V3.715C224,1.682,222.326,0.033,220.26,0.033z"/>
	<path d="M220.253,0.783c1.653,0,2.997,1.344,2.997,2.997v43.506c0,1.653-1.344,2.997-2.997,2.997H3.747
		c-1.653,0-2.997-1.344-2.997-2.997V3.78c0-1.653,1.344-2.997,2.997-2.997H220.253 M220.253,0.033H3.747C1.678,0.033,0,1.711,0,3.78
		v43.506c0,2.069,1.678,3.747,3.747,3.747h216.506c2.069,0,3.747-1.678,3.747-3.747V3.78C224,1.711,222.322,0.033,220.253,0.033
		L220.253,0.033z"/>
</g>
<g>
	<path class="st2" d="M93.672,28.725v-3.24h-5.348v-6.752h10.749v-2.125H88.324v-2.413h13.18v6.806H90.755v2.071h10.893v2.413
		h-5.492v3.24h6.5v2.414H87.172v-2.414H93.672z"/>
	<path class="st2" d="M114.949,28.779l0.936-12.082H105.55v-2.413h13.036v2.413l-0.937,12.082h2.286v2.359h-15.484v-2.359H114.949z"
		/>
	<path class="st2" d="M127.493,14.195c2.179,0,3.925,1.765,3.925,3.925v1.8c0,2.179-1.746,3.925-3.925,3.925h-1.423
		c-2.178,0-3.925-1.747-3.925-3.925v-1.8c0-2.161,1.747-3.925,3.925-3.925H127.493z M125.459,28.707h8.605V14.105h2.521v17.034
		h-13.648v-5.546h2.521V28.707z M126.07,16.68c-0.792,0-1.439,0.648-1.439,1.44v1.8c0,0.792,0.647,1.44,1.439,1.44h1.423
		c0.792,0,1.44-0.648,1.44-1.44v-1.8c0-0.792-0.648-1.44-1.44-1.44H126.07z"/>
</g>
</svg>
