<?xml version="1.0" encoding="utf-8"?>
<!-- Generator: Adobe Illustrator 23.0.1, SVG Export Plug-In . SVG Version: 6.00 Build 0)  -->
<svg version="1.0" id="레이어_1" xmlns="http://www.w3.org/2000/svg" xmlns:xlink="http://www.w3.org/1999/xlink" x="0px"
	 y="0px" viewBox="0 0 234 51" style="enable-background:new 0 0 234 51;" xml:space="preserve">
<style type="text/css">
	.st0{fill:#930405;}
	.st1{fill:#F93738;}
	.st2{fill:#FFFFFF;}
</style>
<path class="st0" d="M224.867,44.997H8.347c-2.065,0-3.74-2.262-3.74-5.053v6c0,2.791,1.674,5.053,3.74,5.053h216.52
	c2.065,0,3.74-2.262,3.74-5.053v-6C228.607,42.735,226.932,44.997,224.867,44.997z"/>
<path class="st1" d="M224.867-0.003H8.347c-2.065,0-3.74,1.649-3.74,3.682v38.635c0,2.034,1.674,3.682,3.74,3.682h216.52
	c2.065,0,3.74-1.649,3.74-3.682V3.68C228.607,1.646,226.932-0.003,224.867-0.003z"/>
<g>
	<path class="st2" d="M97.794,14.795h2.575v7.022h4.609v2.341h-7.184V14.795z M106.328,14.706h2.449v3.673h1.386v-3.673h2.485
		v17.033H99v-5.87h2.593v3.439h8.571v-8.534h-1.386v6.229h-2.449V14.706z"/>
	<path class="st2" d="M135.111,14.795v2.341h-10.316v2.232h10.316v2.341H129.8v1.818h6.519v2.233h-11.704v3.528h10.839v2.449
		h-13.396v-5.978h-1.224v-2.233h6.518v-1.818h-5.312v-6.914H135.111z"/>
</g>
</svg>
